M48
; DRILL file {KiCad (5.1.7)-1} date 10/12/20 01:03:33
; FORMAT={-:-/ absolute / metric / decimal}
; #@! TF.CreationDate,2020-10-12T01:03:33+02:00
; #@! TF.GenerationSoftware,Kicad,Pcbnew,(5.1.7)-1
; #@! TF.FileFunction,Plated,1,2,PTH
FMAT,2
METRIC
T1C0.400
T2C0.800
%
G90
G05
T1
X133.35Y-93.98
X134.62Y-93.98
X134.62Y-97.79
X135.89Y-109.22
X140.97Y-78.74
X146.05Y-104.14
X147.32Y-103.45
X148.59Y-97.79
X149.86Y-90.17
X149.86Y-96.52
X152.4Y-85.09
X165.1Y-90.17
T2
X120.65Y-105.41
X120.65Y-113.03
X123.19Y-105.41
X123.19Y-113.03
X125.73Y-105.41
X125.73Y-113.03
X128.27Y-105.41
X128.27Y-113.03
X130.81Y-105.41
X130.81Y-113.03
X133.35Y-105.41
X133.35Y-113.03
X135.89Y-105.41
X135.89Y-113.03
X138.43Y-105.41
X138.43Y-113.03
X154.94Y-86.36
X154.94Y-88.9
X154.94Y-91.44
X154.94Y-93.98
X154.94Y-96.52
X154.94Y-99.06
X154.94Y-101.6
X154.94Y-104.14
X162.56Y-86.36
X162.56Y-88.9
X162.56Y-91.44
X162.56Y-93.98
X162.56Y-96.52
X162.56Y-99.06
X162.56Y-101.6
X162.56Y-104.14
X123.19Y-67.31
X123.19Y-82.55
X125.73Y-67.31
X125.73Y-82.55
X128.27Y-67.31
X128.27Y-82.55
X130.81Y-67.31
X130.81Y-82.55
X133.35Y-67.31
X133.35Y-82.55
X135.89Y-67.31
X135.89Y-82.55
X138.43Y-67.31
X138.43Y-82.55
X140.97Y-67.31
X140.97Y-82.55
X143.51Y-67.31
X143.51Y-82.55
X146.05Y-67.31
X146.05Y-82.55
X148.59Y-67.31
X148.59Y-82.55
X151.13Y-67.31
X151.13Y-82.55
X153.67Y-67.31
X153.67Y-82.55
X156.21Y-67.31
X156.21Y-82.55
X158.75Y-67.31
X158.75Y-82.55
X118.11Y-86.36
X118.11Y-101.6
X120.65Y-86.36
X120.65Y-101.6
X123.19Y-86.36
X123.19Y-101.6
X125.73Y-86.36
X125.73Y-101.6
X128.27Y-86.36
X128.27Y-101.6
X130.81Y-86.36
X130.81Y-101.6
X133.35Y-86.36
X133.35Y-101.6
X135.89Y-86.36
X135.89Y-101.6
X138.43Y-86.36
X138.43Y-101.6
X140.97Y-86.36
X140.97Y-101.6
X143.51Y-86.36
X143.51Y-101.6
X146.05Y-86.36
X146.05Y-101.6
X148.59Y-86.36
X148.59Y-101.6
X151.13Y-86.36
X151.13Y-101.6
T0
M30
