%TF.GenerationSoftware,KiCad,Pcbnew,(5.1.7)-1*%
%TF.CreationDate,2020-10-12T01:03:24+02:00*%
%TF.ProjectId,16bitComputer,31366269-7443-46f6-9d70-757465722e6b,rev?*%
%TF.SameCoordinates,Original*%
%TF.FileFunction,Legend,Top*%
%TF.FilePolarity,Positive*%
%FSLAX46Y46*%
G04 Gerber Fmt 4.6, Leading zero omitted, Abs format (unit mm)*
G04 Created by KiCad (PCBNEW (5.1.7)-1) date 2020-10-12 01:03:24*
%MOMM*%
%LPD*%
G01*
G04 APERTURE LIST*
%ADD10C,0.120000*%
%ADD11C,0.150000*%
G04 APERTURE END LIST*
D10*
%TO.C,U3*%
X116780000Y-87520000D02*
X116780000Y-92980000D01*
X152460000Y-87520000D02*
X116780000Y-87520000D01*
X152460000Y-100440000D02*
X152460000Y-87520000D01*
X116780000Y-100440000D02*
X152460000Y-100440000D01*
X116780000Y-94980000D02*
X116780000Y-100440000D01*
X116780000Y-92980000D02*
G75*
G02*
X116780000Y-94980000I0J-1000000D01*
G01*
%TO.C,U2*%
X161400000Y-85030000D02*
X159750000Y-85030000D01*
X161400000Y-105470000D02*
X161400000Y-85030000D01*
X156100000Y-105470000D02*
X161400000Y-105470000D01*
X156100000Y-85030000D02*
X156100000Y-105470000D01*
X157750000Y-85030000D02*
X156100000Y-85030000D01*
X159750000Y-85030000D02*
G75*
G02*
X157750000Y-85030000I-1000000J0D01*
G01*
%TO.C,U1*%
X139760000Y-111870000D02*
X139760000Y-110220000D01*
X119320000Y-111870000D02*
X139760000Y-111870000D01*
X119320000Y-106570000D02*
X119320000Y-111870000D01*
X139760000Y-106570000D02*
X119320000Y-106570000D01*
X139760000Y-108220000D02*
X139760000Y-106570000D01*
X139760000Y-110220000D02*
G75*
G02*
X139760000Y-108220000I0J1000000D01*
G01*
%TO.C,A1*%
X119250000Y-65910000D02*
X119250000Y-83950000D01*
X162690000Y-65910000D02*
X119250000Y-65910000D01*
X162690000Y-83950000D02*
X162690000Y-65910000D01*
X160020000Y-81280000D02*
X160020000Y-83950000D01*
X124460000Y-81280000D02*
X160020000Y-81280000D01*
X124460000Y-81280000D02*
X124460000Y-83950000D01*
X160020000Y-68580000D02*
X160020000Y-65910000D01*
X121920000Y-68580000D02*
X160020000Y-68580000D01*
X121920000Y-68580000D02*
X121920000Y-65910000D01*
X119250000Y-83950000D02*
X121920000Y-83950000D01*
X124460000Y-83950000D02*
X162690000Y-83950000D01*
X121920000Y-81280000D02*
X121920000Y-83950000D01*
X124460000Y-81280000D02*
X121920000Y-81280000D01*
%TO.C,U3*%
D11*
X115232380Y-94741904D02*
X116041904Y-94741904D01*
X116137142Y-94694285D01*
X116184761Y-94646666D01*
X116232380Y-94551428D01*
X116232380Y-94360952D01*
X116184761Y-94265714D01*
X116137142Y-94218095D01*
X116041904Y-94170476D01*
X115232380Y-94170476D01*
X115232380Y-93789523D02*
X115232380Y-93170476D01*
X115613333Y-93503809D01*
X115613333Y-93360952D01*
X115660952Y-93265714D01*
X115708571Y-93218095D01*
X115803809Y-93170476D01*
X116041904Y-93170476D01*
X116137142Y-93218095D01*
X116184761Y-93265714D01*
X116232380Y-93360952D01*
X116232380Y-93646666D01*
X116184761Y-93741904D01*
X116137142Y-93789523D01*
%TO.C,U2*%
X157988095Y-83482380D02*
X157988095Y-84291904D01*
X158035714Y-84387142D01*
X158083333Y-84434761D01*
X158178571Y-84482380D01*
X158369047Y-84482380D01*
X158464285Y-84434761D01*
X158511904Y-84387142D01*
X158559523Y-84291904D01*
X158559523Y-83482380D01*
X158988095Y-83577619D02*
X159035714Y-83530000D01*
X159130952Y-83482380D01*
X159369047Y-83482380D01*
X159464285Y-83530000D01*
X159511904Y-83577619D01*
X159559523Y-83672857D01*
X159559523Y-83768095D01*
X159511904Y-83910952D01*
X158940476Y-84482380D01*
X159559523Y-84482380D01*
%TO.C,U1*%
X140212380Y-109981904D02*
X141021904Y-109981904D01*
X141117142Y-109934285D01*
X141164761Y-109886666D01*
X141212380Y-109791428D01*
X141212380Y-109600952D01*
X141164761Y-109505714D01*
X141117142Y-109458095D01*
X141021904Y-109410476D01*
X140212380Y-109410476D01*
X141212380Y-108410476D02*
X141212380Y-108981904D01*
X141212380Y-108696190D02*
X140212380Y-108696190D01*
X140355238Y-108791428D01*
X140450476Y-108886666D01*
X140498095Y-108981904D01*
%TO.C,A1*%
X118276666Y-75644285D02*
X118276666Y-75168095D01*
X118562380Y-75739523D02*
X117562380Y-75406190D01*
X118562380Y-75072857D01*
X118562380Y-74215714D02*
X118562380Y-74787142D01*
X118562380Y-74501428D02*
X117562380Y-74501428D01*
X117705238Y-74596666D01*
X117800476Y-74691904D01*
X117848095Y-74787142D01*
%TD*%
M02*
