%TF.GenerationSoftware,KiCad,Pcbnew,(5.1.7)-1*%
%TF.CreationDate,2020-10-12T01:03:24+02:00*%
%TF.ProjectId,16bitComputer,31366269-7443-46f6-9d70-757465722e6b,rev?*%
%TF.SameCoordinates,Original*%
%TF.FileFunction,Soldermask,Top*%
%TF.FilePolarity,Negative*%
%FSLAX46Y46*%
G04 Gerber Fmt 4.6, Leading zero omitted, Abs format (unit mm)*
G04 Created by KiCad (PCBNEW (5.1.7)-1) date 2020-10-12 01:03:24*
%MOMM*%
%LPD*%
G01*
G04 APERTURE LIST*
%ADD10R,1.600000X1.600000*%
%ADD11O,1.600000X1.600000*%
G04 APERTURE END LIST*
D10*
%TO.C,U3*%
X118110000Y-101600000D03*
D11*
X151130000Y-86360000D03*
X120650000Y-101600000D03*
X148590000Y-86360000D03*
X123190000Y-101600000D03*
X146050000Y-86360000D03*
X125730000Y-101600000D03*
X143510000Y-86360000D03*
X128270000Y-101600000D03*
X140970000Y-86360000D03*
X130810000Y-101600000D03*
X138430000Y-86360000D03*
X133350000Y-101600000D03*
X135890000Y-86360000D03*
X135890000Y-101600000D03*
X133350000Y-86360000D03*
X138430000Y-101600000D03*
X130810000Y-86360000D03*
X140970000Y-101600000D03*
X128270000Y-86360000D03*
X143510000Y-101600000D03*
X125730000Y-86360000D03*
X146050000Y-101600000D03*
X123190000Y-86360000D03*
X148590000Y-101600000D03*
X120650000Y-86360000D03*
X151130000Y-101600000D03*
X118110000Y-86360000D03*
%TD*%
D10*
%TO.C,U2*%
X154940000Y-86360000D03*
D11*
X162560000Y-104140000D03*
X154940000Y-88900000D03*
X162560000Y-101600000D03*
X154940000Y-91440000D03*
X162560000Y-99060000D03*
X154940000Y-93980000D03*
X162560000Y-96520000D03*
X154940000Y-96520000D03*
X162560000Y-93980000D03*
X154940000Y-99060000D03*
X162560000Y-91440000D03*
X154940000Y-101600000D03*
X162560000Y-88900000D03*
X154940000Y-104140000D03*
X162560000Y-86360000D03*
%TD*%
D10*
%TO.C,U1*%
X138430000Y-105410000D03*
D11*
X120650000Y-113030000D03*
X135890000Y-105410000D03*
X123190000Y-113030000D03*
X133350000Y-105410000D03*
X125730000Y-113030000D03*
X130810000Y-105410000D03*
X128270000Y-113030000D03*
X128270000Y-105410000D03*
X130810000Y-113030000D03*
X125730000Y-105410000D03*
X133350000Y-113030000D03*
X123190000Y-105410000D03*
X135890000Y-113030000D03*
X120650000Y-105410000D03*
X138430000Y-113030000D03*
%TD*%
D10*
%TO.C,A1*%
X123190000Y-82550000D03*
D11*
X156210000Y-67310000D03*
X125730000Y-82550000D03*
X153670000Y-67310000D03*
X128270000Y-82550000D03*
X151130000Y-67310000D03*
X130810000Y-82550000D03*
X148590000Y-67310000D03*
X133350000Y-82550000D03*
X146050000Y-67310000D03*
X135890000Y-82550000D03*
X143510000Y-67310000D03*
X138430000Y-82550000D03*
X140970000Y-67310000D03*
X140970000Y-82550000D03*
X138430000Y-67310000D03*
X143510000Y-82550000D03*
X135890000Y-67310000D03*
X146050000Y-82550000D03*
X133350000Y-67310000D03*
X148590000Y-82550000D03*
X130810000Y-67310000D03*
X151130000Y-82550000D03*
X128270000Y-67310000D03*
X153670000Y-82550000D03*
X125730000Y-67310000D03*
X156210000Y-82550000D03*
X123190000Y-67310000D03*
X158750000Y-82550000D03*
X158750000Y-67310000D03*
%TD*%
M02*
